<?xml version="1.0" encoding="utf-8"?>
<!-- Generator: Adobe Illustrator 27.9.0, SVG Export Plug-In . SVG Version: 6.00 Build 0)  -->
<svg version="1.1" id="Layer_1" xmlns="http://www.w3.org/2000/svg" xmlns:xlink="http://www.w3.org/1999/xlink" x="0px" y="0px"
	 viewBox="0 0 73 73" style="enable-background:new 0 0 73 73;" xml:space="preserve">
<style type="text/css">
	.st0{fill:#FFFFFF;}
</style>
<path class="st0" d="M34.7,4.5h3.7C56,6.5,68.2,19.2,68.6,37C64.7,78.7,8.4,78.7,4.4,38.7C3.6,20.5,16.6,6,34.7,4.5z M9.7,36.3
	C9.8,16.1,31.3,2.9,49,13.6c12.3,7.5,16.1,23,9.1,35.8c-4.7,8.7-11,14-21,15.2c-0.1,0-0.2,0-0.3,0.1c-0.1,0.1-0.1,0.1-0.2,0.2
	c-0.1,0.3,0,0.4,0.3,0.4C52.1,64.1,63,53.7,64.1,38.7C65.9,14,37.8-1.5,18.5,14.4c-6.2,5.2-9.6,11.9-10.1,20c0,0.8,0.1,1.5,0.4,2
	c0.1,0.2,0.4,0.3,0.6,0.2C9.6,36.6,9.7,36.4,9.7,36.3z M36.3,49.3l1,6.6c0.1,0.4,0.4,0.7,0.8,0.6c0.7-0.1,1-0.6,0.8-1.6
	c-0.4-2.1-0.8-4.2-1.3-6.4c-0.1-0.3,0-0.6,0.3-0.8c8.5-5.8,10.3-18.6,8.7-27.9c-0.2-1.4-0.8-2.4-1.7-3.1c-0.1-0.1-0.4-0.1-0.5,0.1
	c-0.1,0.1-0.1,0.2-0.1,0.3c2.3,8.5,1.4,22.7-6.5,28.8c-0.4,0.3-0.6,0.2-0.7-0.2c-0.7-2.4-1.4-4.8-2.2-7.1c-0.1-0.3-0.2-0.4-0.3-0.5
	c-0.1-0.1-0.3-0.1-0.5-0.1c-0.3,0-0.5,0.3-0.5,0.6c0,0,0,0.1,0,0.1l2,7.5c0.1,0.3,0,0.5-0.3,0.6c-5.4,1.8-8.4-4.5-8.2-8.8
	c0.3-7.6,5.5-17.9,14.4-18.3c0.3,0,0.5-0.3,0.5-0.6c0-0.2-0.2-0.4-0.4-0.5c-14.1-3.1-25.5,30.7-6,30.2C36,48.8,36.2,48.9,36.3,49.3z
	"/>
</svg>
